<?xml version="1.0" encoding="UTF-8"?>
<!DOCTYPE svg PUBLIC "-//W3C//DTD SVG 1.1//EN" "http://www.w3.org/Graphics/SVG/1.1/DTD/svg11.dtd">
<svg xmlns="http://www.w3.org/2000/svg" version="1.1" width="843px" height="154px" style="shape-rendering:geometricPrecision; text-rendering:geometricPrecision; image-rendering:optimizeQuality; fill-rule:evenodd; clip-rule:evenodd" xmlns:xlink="http://www.w3.org/1999/xlink">
<g><path style="opacity:1" fill="#5371fe" d="M 155.5,-0.5 C 384.5,-0.5 613.5,-0.5 842.5,-0.5C 842.5,50.8333 842.5,102.167 842.5,153.5C 790.5,153.5 738.5,153.5 686.5,153.5C 687.779,150.998 687.779,148.498 686.5,146C 682.637,144.646 678.637,144.146 674.5,144.5C 674.286,142.856 674.62,141.356 675.5,140C 683.55,140.467 686.55,136.967 684.5,129.5C 687.019,127.359 687.019,125.359 684.5,123.5C 683.639,127.552 681.472,128.552 678,126.5C 673.35,126.236 670.85,128.402 670.5,133C 670.643,135.151 671.643,136.818 673.5,138C 669.959,140.282 669.626,142.949 672.5,146C 668.688,147.432 667.688,149.932 669.5,153.5C 563.5,153.5 457.5,153.5 351.5,153.5C 351.336,150.813 351.503,148.146 352,145.5C 355.933,148.099 359.933,148.099 364,145.5C 366.374,141.106 367.041,136.44 366,131.5C 363.459,126.931 359.625,125.431 354.5,127C 353.584,127.374 352.75,127.874 352,128.5C 350.951,126.893 349.451,126.227 347.5,126.5C 347.5,135.5 347.5,144.5 347.5,153.5C 340.833,153.5 334.167,153.5 327.5,153.5C 327.336,150.813 327.503,148.146 328,145.5C 334.084,149.074 338.751,147.741 342,141.5C 342.667,138.5 342.667,135.5 342,132.5C 338.874,126.233 334.208,124.899 328,128.5C 326.951,126.893 325.451,126.227 323.5,126.5C 323.5,135.5 323.5,144.5 323.5,153.5C 267.5,153.5 211.5,153.5 155.5,153.5C 155.5,144.5 155.5,135.5 155.5,126.5C 155.5,119.167 155.5,111.833 155.5,104.5C 155.5,94.5 155.5,84.5 155.5,74.5C 155.5,49.8333 155.5,25.1667 155.5,0.5C 155.5,0.166667 155.5,-0.166667 155.5,-0.5 Z"/></g>
<g><path style="opacity:1" fill="#94b3ba" d="M 62.5,0.5 C 93.5,0.5 124.5,0.5 155.5,0.5C 155.5,25.1667 155.5,49.8333 155.5,74.5C 154.504,74.5858 153.671,74.2524 153,73.5C 152.692,74.3081 152.192,74.9747 151.5,75.5C 145.138,73.7017 142.304,76.0351 143,82.5C 141,83.1667 139,83.8333 137,84.5C 134.67,88.1651 133.17,92.1651 132.5,96.5C 127.901,99.5576 122.901,100.224 117.5,98.5C 120.121,97.5295 122.454,96.1962 124.5,94.5C 121.417,94.0374 118.751,92.8708 116.5,91C 117.305,89.8873 117.972,88.7206 118.5,87.5C 119.5,86.1667 120.5,84.8333 121.5,83.5C 122.057,78.3669 123.724,73.5336 126.5,69C 125.549,65.9433 125.216,62.7766 125.5,59.5C 127.167,59.5 128.833,59.5 130.5,59.5C 130.201,57.396 130.534,55.396 131.5,53.5C 132.833,52.8333 133.833,51.8333 134.5,50.5C 131.572,49.5159 128.572,49.1826 125.5,49.5C 126.246,44.5591 124.579,40.7257 120.5,38C 121.617,34.9269 121.784,31.7603 121,28.5C 118.26,27.7178 115.426,27.2178 112.5,27C 112.043,26.586 111.709,26.086 111.5,25.5C 105.342,24.4459 99.1754,23.4459 93,22.5C 85.6107,23.9224 78.1107,24.7558 70.5,25C 66.5871,27.4116 64.5871,30.9116 64.5,35.5C 60.8971,37.7631 57.5638,40.4297 54.5,43.5C 51.7664,45.619 48.9331,47.619 46,49.5C 42.9352,49.5463 39.7685,49.213 36.5,48.5C 38.728,45.0977 40.3947,41.431 41.5,37.5C 41.1667,36.8333 40.8333,36.1667 40.5,35.5C 42.8343,30.7497 45.6677,26.4163 49,22.5C 49.2042,16.2901 52.3708,12.4567 58.5,11C 60.6618,9.35457 61.9951,7.18791 62.5,4.5C 64.4233,3.69221 66.4233,3.19221 68.5,3C 65.9488,2.99775 63.9488,2.16441 62.5,0.5 Z"/></g>
<g><path style="opacity:1" fill="#ecf0f0" d="M 339.5,42.5 C 339.36,36.4638 339.693,30.4638 340.5,24.5C 345.011,15.3944 352.344,9.8944 362.5,8C 376.431,5.60584 389.431,7.93918 401.5,15C 403.019,16.3513 404.352,17.8513 405.5,19.5C 402.882,24.4131 399.548,28.7465 395.5,32.5C 384.986,23.1189 373.319,21.2856 360.5,27C 355.997,33.3094 356.997,38.6428 363.5,43C 370.725,45.0937 378.058,46.7603 385.5,48C 405.06,52.6195 412.893,64.7862 409,84.5C 406.288,93.5476 400.454,99.7143 391.5,103C 374.569,107.833 358.569,105.833 343.5,97C 340.65,94.3176 337.984,91.4843 335.5,88.5C 338.643,84.189 341.977,80.0224 345.5,76C 346.5,75.3333 347.5,75.3333 348.5,76C 357.175,87.5581 368.508,91.5581 382.5,88C 388.908,84.6772 391.075,79.5105 389,72.5C 387.5,71 386,69.5 384.5,68C 373.334,65.1265 362.334,61.7931 351.5,58C 345.406,54.4113 341.406,49.2447 339.5,42.5 Z"/></g>
<g><path style="opacity:1" fill="#ebeff0" d="M 226.5,46.5 C 226.5,51.5 226.5,56.5 226.5,61.5C 213.323,61.1712 200.323,61.5045 187.5,62.5C 187.5,71.1667 187.5,79.8333 187.5,88.5C 202.833,88.5 218.167,88.5 233.5,88.5C 233.5,93.8333 233.5,99.1667 233.5,104.5C 211.5,104.5 189.5,104.5 167.5,104.5C 167.5,72.5 167.5,40.5 167.5,8.5C 189.167,8.5 210.833,8.5 232.5,8.5C 232.5,13.8333 232.5,19.1667 232.5,24.5C 217.5,24.5 202.5,24.5 187.5,24.5C 187.5,31.8333 187.5,39.1667 187.5,46.5C 200.5,46.5 213.5,46.5 226.5,46.5 Z"/></g>
<g><path style="opacity:1" fill="#ebeff0" d="M 272.5,8.5 C 281.167,8.5 289.833,8.5 298.5,8.5C 309.364,40.4262 320.031,72.4262 330.5,104.5C 323.5,104.5 316.5,104.5 309.5,104.5C 307.754,97.4392 305.754,90.4392 303.5,83.5C 291.185,82.501 278.851,82.1676 266.5,82.5C 264.771,89.6863 262.438,96.6863 259.5,103.5C 252.866,104.497 246.2,104.83 239.5,104.5C 250.103,72.3574 261.103,40.3574 272.5,8.5 Z"/></g>
<g><path style="opacity:1" fill="#ecf0f0" d="M 412.5,8.5 C 419.508,8.33371 426.508,8.50038 433.5,9C 440.634,21.63 447.967,34.13 455.5,46.5C 462.753,34.3291 469.753,21.9957 476.5,9.5C 483.5,8.16667 490.5,8.16667 497.5,9.5C 486.667,28.5 475.833,47.5 465,66.5C 464.5,79.1623 464.333,91.8289 464.5,104.5C 458.167,104.5 451.833,104.5 445.5,104.5C 445.667,91.8289 445.5,79.1623 445,66.5C 433.51,47.5159 422.676,28.1826 412.5,8.5 Z"/></g>
<g><path style="opacity:1" fill="#ebeff0" d="M 632.5,104.5 C 632.833,83.4894 632.5,62.4894 631.5,41.5C 630.702,41.9569 630.369,42.6236 630.5,43.5C 623.688,63.9371 616.688,84.2704 609.5,104.5C 603.833,104.5 598.167,104.5 592.5,104.5C 585.328,83.501 577.995,62.501 570.5,41.5C 569.5,62.4894 569.167,83.4894 569.5,104.5C 563.5,104.5 557.5,104.5 551.5,104.5C 551.5,72.5 551.5,40.5 551.5,8.5C 560.192,8.16863 568.859,8.50196 577.5,9.5C 585.378,32.6358 593.545,55.6358 602,78.5C 610.138,55.2536 617.971,31.9202 625.5,8.5C 634.167,8.5 642.833,8.5 651.5,8.5C 651.5,40.5 651.5,72.5 651.5,104.5C 645.167,104.5 638.833,104.5 632.5,104.5 Z"/></g>
<g><path style="opacity:1" fill="#eef2f0" d="M 739.5,8.5 C 739.5,13.5 739.5,18.5 739.5,23.5C 724.5,23.5 709.5,23.5 694.5,23.5C 694.175,31.3516 694.508,39.0182 695.5,46.5C 708.167,46.5 720.833,46.5 733.5,46.5C 733.5,51.5 733.5,56.5 733.5,61.5C 720.5,61.5 707.5,61.5 694.5,61.5C 694.5,70.8333 694.5,80.1667 694.5,89.5C 709.833,89.5 725.167,89.5 740.5,89.5C 740.5,94.5 740.5,99.5 740.5,104.5C 718.833,104.5 697.167,104.5 675.5,104.5C 675.5,72.5 675.5,40.5 675.5,8.5C 696.833,8.5 718.167,8.5 739.5,8.5 Z"/></g>
<g><path style="opacity:1" fill="#ebeff0" d="M 757.5,8.5 C 772.837,8.33341 788.17,8.50008 803.5,9C 829.589,13.9803 842.256,29.8137 841.5,56.5C 842.256,83.1863 829.589,99.0197 803.5,104C 788.17,104.5 772.837,104.667 757.5,104.5C 757.5,72.5 757.5,40.5 757.5,8.5 Z"/></g>
<g><path style="opacity:1" fill="#b1bff5" d="M 739.5,8.5 C 740.488,13.6405 740.821,18.9738 740.5,24.5C 725.5,24.5 710.5,24.5 695.5,24.5C 695.5,31.8333 695.5,39.1667 695.5,46.5C 694.508,39.0182 694.175,31.3516 694.5,23.5C 709.5,23.5 724.5,23.5 739.5,23.5C 739.5,18.5 739.5,13.5 739.5,8.5 Z"/></g>
<g><path style="opacity:1" fill="#9fbfc6" d="M 121.5,83.5 C 121.666,76.825 121.5,70.1583 121,63.5C 120.167,62.6667 119.333,61.8333 118.5,61C 110.841,60.5003 103.174,60.3336 95.5,60.5C 95.5,59.1667 95.5,57.8333 95.5,56.5C 96.3417,51.9494 95.0083,48.2827 91.5,45.5C 91.6653,41.8183 91.4986,38.1516 91,34.5C 90.0975,33.2986 88.9308,32.4652 87.5,32C 80.8333,31.3333 74.1667,31.3333 67.5,32C 66.3636,33.1451 65.3636,34.3117 64.5,35.5C 64.5871,30.9116 66.5871,27.4116 70.5,25C 78.1107,24.7558 85.6107,23.9224 93,22.5C 99.1754,23.4459 105.342,24.4459 111.5,25.5C 111.709,26.086 112.043,26.586 112.5,27C 115.426,27.2178 118.26,27.7178 121,28.5C 121.784,31.7603 121.617,34.9269 120.5,38C 124.579,40.7257 126.246,44.5591 125.5,49.5C 128.572,49.1826 131.572,49.5159 134.5,50.5C 133.833,51.8333 132.833,52.8333 131.5,53.5C 130.534,55.396 130.201,57.396 130.5,59.5C 128.833,59.5 127.167,59.5 125.5,59.5C 125.216,62.7766 125.549,65.9433 126.5,69C 123.724,73.5336 122.057,78.3669 121.5,83.5 Z"/></g>
<g><path style="opacity:1" fill="#5372fe" d="M 819.5,43.5 C 820.32,49.7974 820.653,56.1308 820.5,62.5C 820.201,76.6242 813.201,85.1242 799.5,88C 792.174,88.4997 784.841,88.6663 777.5,88.5C 777.5,67.1667 777.5,45.8333 777.5,24.5C 786.559,24.1541 795.559,24.6541 804.5,26C 812.618,29.2763 817.618,35.1096 819.5,43.5 Z"/></g>
<g><path style="opacity:1" fill="#5673fe" d="M 283.5,28.5 C 284.497,28.4701 285.164,28.9701 285.5,30C 289.611,42.1649 293.611,54.3316 297.5,66.5C 289.167,66.5 280.833,66.5 272.5,66.5C 276.567,53.9632 280.234,41.2965 283.5,28.5 Z"/></g>
<g><path style="opacity:1" fill="#c5cff4" d="M 340.5,24.5 C 339.693,30.4638 339.36,36.4638 339.5,42.5C 338.836,40.1903 338.503,37.6903 338.5,35C 338.304,31.1952 338.97,27.6952 340.5,24.5 Z"/></g>
<g><path style="opacity:1" fill="#7b93fa" d="M 632.5,104.5 C 631.833,84.1667 631.167,63.8333 630.5,43.5C 630.369,42.6236 630.702,41.9569 631.5,41.5C 632.5,62.4894 632.833,83.4894 632.5,104.5 Z"/></g>
<g><path style="opacity:1" fill="#f1f7f5" d="M 91.5,45.5 C 88.9966,44.9155 86.4966,44.2489 84,43.5C 79.7027,45.4744 79.536,47.4744 83.5,49.5C 87.3223,47.7703 89.9889,48.7703 91.5,52.5C 91.8704,60.0171 90.2037,67.0171 86.5,73.5C 80.3272,77.8305 74.4938,77.4971 69,72.5C 64.9303,65.6809 63.5969,58.3475 65,50.5C 65.5,50 66,49.5 66.5,49C 69.409,49.2839 72.2423,49.1172 75,48.5C 75.6378,45.0699 74.1378,43.7366 70.5,44.5C 68.5,44.5 66.5,44.5 64.5,44.5C 64.5,41.5 64.5,38.5 64.5,35.5C 65.3636,34.3117 66.3636,33.1451 67.5,32C 74.1667,31.3333 80.8333,31.3333 87.5,32C 88.9308,32.4652 90.0975,33.2986 91,34.5C 91.4986,38.1516 91.6653,41.8183 91.5,45.5 Z"/></g>
<g><path style="opacity:1" fill="#81a5af" d="M 62.5,0.5 C 63.9488,2.16441 65.9488,2.99775 68.5,3C 66.4233,3.19221 64.4233,3.69221 62.5,4.5C 61.9951,7.18791 60.6618,9.35457 58.5,11C 52.3708,12.4567 49.2042,16.2901 49,22.5C 45.6677,26.4163 42.8343,30.7497 40.5,35.5C 40.8333,36.1667 41.1667,36.8333 41.5,37.5C 40.3947,41.431 38.728,45.0977 36.5,48.5C 39.7685,49.213 42.9352,49.5463 46,49.5C 48.9331,47.619 51.7664,45.619 54.5,43.5C 54.4469,46.1135 54.4469,48.7802 54.5,51.5C 53.2081,53.6666 52.3747,55.9999 52,58.5C 51.0053,59.0659 50.172,59.7326 49.5,60.5C 45.8183,60.3347 42.1516,60.5014 38.5,61C 37.6667,61.8333 36.8333,62.6667 36,63.5C 35.5004,70.1583 35.3337,76.825 35.5,83.5C 34.8333,77.8333 34.1667,72.1667 33.5,66.5C 31.1667,68.1667 29.1667,70.1667 27.5,72.5C 26.2905,72.9321 25.2905,73.5987 24.5,74.5C 22.8523,75.8098 21.1856,77.1431 19.5,78.5C 15.1371,76.6979 13.3038,73.3646 14,68.5C 13.3333,63.5 13.3333,58.5 14,53.5C 15.3596,48.322 16.3596,42.9886 17,37.5C 18.0569,35.7806 18.8903,33.9472 19.5,32C 18.565,29.6194 18.2317,27.1194 18.5,24.5C 20.5,24.5 22.5,24.5 24.5,24.5C 24.1758,20.4454 24.5091,16.4454 25.5,12.5C 27.0693,10.0119 28.736,7.51194 30.5,5C 29.2068,4.50999 27.8734,4.34332 26.5,4.5C 26.6567,5.87344 26.49,7.20677 26,8.5C 25.1785,5.88317 24.6785,3.2165 24.5,0.5C 37.1667,0.5 49.8333,0.5 62.5,0.5 Z"/></g>
<g><path style="opacity:1" fill="#adbbf6" d="M 533.5,65.5 C 533.5,60.5 533.5,55.5 533.5,50.5C 520.167,50.5 506.833,50.5 493.5,50.5C 493.5,55.5 493.5,60.5 493.5,65.5C 492.512,60.3595 492.179,55.0262 492.5,49.5C 506.5,49.5 520.5,49.5 534.5,49.5C 534.821,55.0262 534.488,60.3595 533.5,65.5 Z"/></g>
<g><path style="opacity:1" fill="#eef2f0" d="M 533.5,65.5 C 520.167,65.5 506.833,65.5 493.5,65.5C 493.5,60.5 493.5,55.5 493.5,50.5C 506.833,50.5 520.167,50.5 533.5,50.5C 533.5,55.5 533.5,60.5 533.5,65.5 Z"/></g>
<g><path style="opacity:1" fill="#afbdf6" d="M 819.5,43.5 C 821.039,46.8646 821.706,50.5313 821.5,54.5C 821.497,57.3555 821.164,60.0221 820.5,62.5C 820.653,56.1308 820.32,49.7974 819.5,43.5 Z"/></g>
<g><path style="opacity:1" fill="#54869b" d="M 64.5,35.5 C 64.5,38.5 64.5,41.5 64.5,44.5C 66.5,44.5 68.5,44.5 70.5,44.5C 61.1637,45.87 57.8304,51.2034 60.5,60.5C 59.5,60.5 58.5,60.5 57.5,60.5C 54.8333,60.5 52.1667,60.5 49.5,60.5C 50.172,59.7326 51.0053,59.0659 52,58.5C 52.3747,55.9999 53.2081,53.6666 54.5,51.5C 54.4469,48.7802 54.4469,46.1135 54.5,43.5C 57.5638,40.4297 60.8971,37.7631 64.5,35.5 Z"/></g>
<g><path style="opacity:1" fill="#2f5a6e" d="M 91.5,45.5 C 95.0083,48.2827 96.3417,51.9494 95.5,56.5C 94.6851,57.4293 93.8518,58.4293 93,59.5C 92.8138,56.9644 92.3138,54.631 91.5,52.5C 89.9889,48.7703 87.3223,47.7703 83.5,49.5C 79.536,47.4744 79.7027,45.4744 84,43.5C 86.4966,44.2489 88.9966,44.9155 91.5,45.5 Z"/></g>
<g><path style="opacity:1" fill="#1e485c" d="M 70.5,44.5 C 74.1378,43.7366 75.6378,45.0699 75,48.5C 72.2423,49.1172 69.409,49.2839 66.5,49C 66,49.5 65.5,50 65,50.5C 63.5969,58.3475 64.9303,65.6809 69,72.5C 74.4938,77.4971 80.3272,77.8305 86.5,73.5C 87.391,74.1098 88.391,74.4431 89.5,74.5C 87.4225,78.5319 84.0892,80.5319 79.5,80.5C 79.3341,85.5111 79.5007,90.5111 80,95.5C 81.0757,98.079 82.909,99.7457 85.5,100.5C 87.9664,101.634 90.633,101.801 93.5,101C 94.1258,100.25 94.6258,99.4162 95,98.5C 95.3988,98.7284 95.5654,99.0618 95.5,99.5C 96.0208,107.012 100.021,110.012 107.5,108.5C 106.889,110.775 105.555,112.441 103.5,113.5C 96.7998,114.964 93.6331,112.297 94,105.5C 93.3292,104.748 92.4959,104.414 91.5,104.5C 83.846,105.757 78.6794,102.757 76,95.5C 75.5007,90.5111 75.3341,85.5111 75.5,80.5C 69.0485,79.5115 64.8818,75.8448 63,69.5C 61.8551,66.5682 61.0218,63.5682 60.5,60.5C 57.8304,51.2034 61.1637,45.87 70.5,44.5 Z"/></g>
<g><path style="opacity:1" fill="#f5f8f3" d="M 95.5,60.5 C 103.174,60.3336 110.841,60.5003 118.5,61C 119.333,61.8333 120.167,62.6667 121,63.5C 121.5,70.1583 121.666,76.825 121.5,83.5C 120.5,84.8333 119.5,86.1667 118.5,87.5C 109.318,87.1734 100.318,87.5067 91.5,88.5C 91.5,89.5 91.5,90.5 91.5,91.5C 91.5,92.5 91.5,93.5 91.5,94.5C 91.5,96.5 91.5,98.5 91.5,100.5C 89.5,100.5 87.5,100.5 85.5,100.5C 82.909,99.7457 81.0757,98.079 80,95.5C 79.5007,90.5111 79.3341,85.5111 79.5,80.5C 84.0892,80.5319 87.4225,78.5319 89.5,74.5C 92.8383,70.5091 94.8383,65.8425 95.5,60.5 Z"/></g>
<g><path style="opacity:1" fill="#acbaf6" d="M 226.5,46.5 C 227.488,51.6405 227.821,56.9738 227.5,62.5C 214.167,62.5 200.833,62.5 187.5,62.5C 200.323,61.5045 213.323,61.1712 226.5,61.5C 226.5,56.5 226.5,51.5 226.5,46.5 Z"/></g>
<g><path style="opacity:1" fill="#eff2ef" d="M 49.5,60.5 C 52.1667,60.5 54.8333,60.5 57.5,60.5C 56.4183,61.5938 55.7517,62.9271 55.5,64.5C 57.168,70.5059 58.8347,76.5059 60.5,82.5C 62.3325,83.2485 63.9991,84.2485 65.5,85.5C 65.3333,85.8333 65.1667,86.1667 65,86.5C 56.919,87.4825 48.7524,87.8158 40.5,87.5C 38.2512,86.9202 36.5846,85.5869 35.5,83.5C 35.3337,76.825 35.5004,70.1583 36,63.5C 36.8333,62.6667 37.6667,61.8333 38.5,61C 42.1516,60.5014 45.8183,60.3347 49.5,60.5 Z"/></g>
<g><path style="opacity:1" fill="#4b8897" d="M 91.5,52.5 C 92.3138,54.631 92.8138,56.9644 93,59.5C 93.8518,58.4293 94.6851,57.4293 95.5,56.5C 95.5,57.8333 95.5,59.1667 95.5,60.5C 94.8383,65.8425 92.8383,70.5091 89.5,74.5C 88.391,74.4431 87.391,74.1098 86.5,73.5C 90.2037,67.0171 91.8704,60.0171 91.5,52.5 Z"/></g>
<g><path style="opacity:1" fill="#b4c1f5" d="M 733.5,46.5 C 734.488,51.6405 734.821,56.9738 734.5,62.5C 721.5,62.5 708.5,62.5 695.5,62.5C 695.5,71.1667 695.5,79.8333 695.5,88.5C 710.833,88.5 726.167,88.5 741.5,88.5C 741.821,94.0262 741.488,99.3595 740.5,104.5C 740.5,99.5 740.5,94.5 740.5,89.5C 725.167,89.5 709.833,89.5 694.5,89.5C 694.5,80.1667 694.5,70.8333 694.5,61.5C 707.5,61.5 720.5,61.5 733.5,61.5C 733.5,56.5 733.5,51.5 733.5,46.5 Z"/></g>
<g><path style="opacity:1" fill="#123b52" d="M 91.5,88.5 C 99.84,88.3336 108.173,88.5003 116.5,89C 115.295,90.3756 113.962,91.5423 112.5,92.5C 105.51,92.0009 98.5097,91.6675 91.5,91.5C 91.5,90.5 91.5,89.5 91.5,88.5 Z"/></g>
<g><path style="opacity:1" fill="#123b4f" d="M 33.5,66.5 C 34.1667,72.1667 34.8333,77.8333 35.5,83.5C 36.5846,85.5869 38.2512,86.9202 40.5,87.5C 48.3159,88.4924 56.3159,88.8257 64.5,88.5C 64.0505,98.6051 64.5505,108.605 66,118.5C 66.7504,119.126 67.5838,119.626 68.5,120C 74.8246,120.5 81.1579,120.666 87.5,120.5C 87.1667,121.5 86.5,122.167 85.5,122.5C 79.7328,123.157 74.2328,123.823 69,124.5C 66.8252,123.745 64.6585,122.912 62.5,122C 62.0058,117.275 62.0058,112.442 62.5,107.5C 62.451,102.968 61.6177,98.6343 60,94.5C 58.9326,93.8095 57.7659,93.3095 56.5,93C 48.7531,92.8062 41.0864,91.9729 33.5,90.5C 33.0576,89.2613 32.3909,88.2613 31.5,87.5C 30.9982,80.3232 31.6649,73.3232 33.5,66.5 Z"/></g>
<g><path style="opacity:1" fill="#dde6e6" d="M 57.5,60.5 C 58.5,60.5 59.5,60.5 60.5,60.5C 61.0218,63.5682 61.8551,66.5682 63,69.5C 64.8818,75.8448 69.0485,79.5115 75.5,80.5C 75.3341,85.5111 75.5007,90.5111 76,95.5C 78.6794,102.757 83.846,105.757 91.5,104.5C 91.5,108.5 91.5,112.5 91.5,116.5C 90.1667,117.833 88.8333,119.167 87.5,120.5C 81.1579,120.666 74.8246,120.5 68.5,120C 67.5838,119.626 66.7504,119.126 66,118.5C 64.5505,108.605 64.0505,98.6051 64.5,88.5C 56.3159,88.8257 48.3159,88.4924 40.5,87.5C 48.7524,87.8158 56.919,87.4825 65,86.5C 65.1667,86.1667 65.3333,85.8333 65.5,85.5C 63.9991,84.2485 62.3325,83.2485 60.5,82.5C 58.8347,76.5059 57.168,70.5059 55.5,64.5C 55.7517,62.9271 56.4183,61.5938 57.5,60.5 Z"/></g>
<g><path style="opacity:1" fill="#2b6177" d="M 91.5,91.5 C 98.5097,91.6675 105.51,92.0009 112.5,92.5C 112.5,94.5 111.5,95.5 109.5,95.5C 106.057,93.2794 102.39,92.9461 98.5,94.5C 96.1667,94.5 93.8333,94.5 91.5,94.5C 91.5,93.5 91.5,92.5 91.5,91.5 Z"/></g>
<g><path style="opacity:1" fill="#d4e7ef" d="M 109.5,95.5 C 112.564,100.384 111.897,104.717 107.5,108.5C 100.021,110.012 96.0208,107.012 95.5,99.5C 96.3077,97.7798 97.3077,96.1131 98.5,94.5C 102.39,92.9461 106.057,93.2794 109.5,95.5 Z"/></g>
<g><path style="opacity:1" fill="#6495a4" d="M 91.5,94.5 C 93.8333,94.5 96.1667,94.5 98.5,94.5C 97.3077,96.1131 96.3077,97.7798 95.5,99.5C 95.5654,99.0618 95.3988,98.7284 95,98.5C 94.6258,99.4162 94.1258,100.25 93.5,101C 90.633,101.801 87.9664,101.634 85.5,100.5C 87.5,100.5 89.5,100.5 91.5,100.5C 91.5,98.5 91.5,96.5 91.5,94.5 Z"/></g>
<g><path style="opacity:1" fill="#467489" d="M 27.5,72.5 C 28.1501,79.6676 28.8167,86.8343 29.5,94C 38.9635,94.8642 48.2968,96.0309 57.5,97.5C 57.3335,106.839 57.5002,116.173 58,125.5C 58.5,126 59,126.5 59.5,127C 66.8478,127.521 74.1811,127.355 81.5,126.5C 79.66,128.914 77.3267,130.581 74.5,131.5C 67.2298,131.742 60.0632,131.742 53,131.5C 53.695,120.869 54.195,110.203 54.5,99.5C 44.9116,98.1169 35.2449,97.1169 25.5,96.5C 24.5345,89.224 24.2012,81.8907 24.5,74.5C 25.2905,73.5987 26.2905,72.9321 27.5,72.5 Z"/></g>
<g><path style="opacity:1" fill="#1d3c45" d="M 100.5,96.5 C 108.877,96.2743 110.544,99.441 105.5,106C 98.4741,105.759 96.8074,102.593 100.5,96.5 Z"/></g>
<g><path style="opacity:1" fill="#c0cedc" d="M 101.5,98.5 C 107.175,98.8597 107.842,100.86 103.5,104.5C 100.61,103.163 99.9428,101.163 101.5,98.5 Z"/></g>
<g><path style="opacity:1" fill="#84a7b1" d="M 155.5,74.5 C 155.5,84.5 155.5,94.5 155.5,104.5C 153.643,101.982 151.81,101.982 150,104.5C 146.442,104.594 143.942,106.594 142.5,110.5C 139.107,113.219 135.44,115.553 131.5,117.5C 130.614,118.325 130.281,119.325 130.5,120.5C 125.67,120.387 121.003,121.22 116.5,123C 116.167,124 115.833,125 115.5,126C 112.364,126.315 109.697,127.482 107.5,129.5C 103.634,130.002 99.9674,131.002 96.5,132.5C 95.6721,131.585 94.6721,130.919 93.5,130.5C 91.8333,131.167 90.1667,131.833 88.5,132.5C 85.4331,131.344 85.0997,129.844 87.5,128C 86.3595,127.259 86.3595,126.425 87.5,125.5C 90.1667,124.833 92.8333,124.167 95.5,123.5C 96.6125,121.581 97.9458,119.914 99.5,118.5C 100.136,116.205 101.469,114.539 103.5,113.5C 105.555,112.441 106.889,110.775 107.5,108.5C 111.897,104.717 112.564,100.384 109.5,95.5C 111.5,95.5 112.5,94.5 112.5,92.5C 113.962,91.5423 115.295,90.3756 116.5,89C 108.173,88.5003 99.84,88.3336 91.5,88.5C 100.318,87.5067 109.318,87.1734 118.5,87.5C 117.972,88.7206 117.305,89.8873 116.5,91C 118.751,92.8708 121.417,94.0374 124.5,94.5C 122.454,96.1962 120.121,97.5295 117.5,98.5C 122.901,100.224 127.901,99.5576 132.5,96.5C 133.17,92.1651 134.67,88.1651 137,84.5C 139,83.8333 141,83.1667 143,82.5C 142.304,76.0351 145.138,73.7017 151.5,75.5C 152.192,74.9747 152.692,74.3081 153,73.5C 153.671,74.2524 154.504,74.5858 155.5,74.5 Z"/></g>
<g><path style="opacity:1" fill="#4b7d91" d="M 91.5,104.5 C 92.4959,104.414 93.3292,104.748 94,105.5C 93.6331,112.297 96.7998,114.964 103.5,113.5C 101.469,114.539 100.136,116.205 99.5,118.5C 96.3019,119.036 93.6353,118.369 91.5,116.5C 91.5,112.5 91.5,108.5 91.5,104.5 Z"/></g>
<g><path style="opacity:1" fill="#6a91a1" d="M 0.5,-0.5 C 52.1667,-0.5 103.833,-0.5 155.5,-0.5C 155.5,-0.166667 155.5,0.166667 155.5,0.5C 124.5,0.5 93.5,0.5 62.5,0.5C 49.8333,0.5 37.1667,0.5 24.5,0.5C 24.6785,3.2165 25.1785,5.88317 26,8.5C 26.49,7.20677 26.6567,5.87344 26.5,4.5C 27.8734,4.34332 29.2068,4.50999 30.5,5C 28.736,7.51194 27.0693,10.0119 25.5,12.5C 24.5091,16.4454 24.1758,20.4454 24.5,24.5C 22.5,24.5 20.5,24.5 18.5,24.5C 18.2317,27.1194 18.565,29.6194 19.5,32C 18.8903,33.9472 18.0569,35.7806 17,37.5C 16.3596,42.9886 15.3596,48.322 14,53.5C 13.3333,58.5 13.3333,63.5 14,68.5C 13.3038,73.3646 15.1371,76.6979 19.5,78.5C 21.1856,77.1431 22.8523,75.8098 24.5,74.5C 24.2012,81.8907 24.5345,89.224 25.5,96.5C 35.2449,97.1169 44.9116,98.1169 54.5,99.5C 54.195,110.203 53.695,120.869 53,131.5C 60.0632,131.742 67.2298,131.742 74.5,131.5C 74.6309,132.376 74.2975,133.043 73.5,133.5C 67.8963,134.711 65.8963,138.044 67.5,143.5C 69.6416,144.601 71.8083,145.601 74,146.5C 74.4935,148.134 74.6602,149.801 74.5,151.5C 78.5,151.5 82.5,151.5 86.5,151.5C 86.5,150.167 86.5,148.833 86.5,147.5C 97.2773,145.65 107.944,143.483 118.5,141C 127.885,136.539 137.551,132.873 147.5,130C 149.391,127.198 152.058,126.032 155.5,126.5C 155.5,135.5 155.5,144.5 155.5,153.5C 122.5,153.5 89.5,153.5 56.5,153.5C 53.6704,151.046 50.337,149.38 46.5,148.5C 45.8333,148.833 45.1667,149.167 44.5,149.5C 40.506,147.451 36.8393,144.951 33.5,142C 32.1011,141.405 30.7678,141.572 29.5,142.5C 27.8076,140.641 26.3076,138.641 25,136.5C 22.6845,137.367 20.6845,136.701 19,134.5C 18.5045,132.527 18.3379,130.527 18.5,128.5C 15.7531,128.813 13.0865,128.48 10.5,127.5C 9.28847,124.233 8.28847,120.899 7.5,117.5C 5.52204,116.869 3.35537,116.869 1,117.5C 0.500012,78.1681 0.333345,38.8347 0.5,-0.5 Z"/></g>
<g><path style="opacity:1" fill="#edf0ff" d="M 223.5,118.5 C 224.833,118.5 226.167,118.5 227.5,118.5C 227.5,127.167 227.5,135.833 227.5,144.5C 228.5,144.5 229.5,144.5 230.5,144.5C 230.5,145.5 230.5,146.5 230.5,147.5C 227.956,147.896 225.789,147.229 224,145.5C 223.5,136.506 223.334,127.506 223.5,118.5 Z"/></g>
<g><path style="opacity:1" fill="#e5edff" d="M 234.5,118.5 C 235.833,118.5 237.167,118.5 238.5,118.5C 238.5,119.833 238.5,121.167 238.5,122.5C 234.56,123.234 233.227,121.901 234.5,118.5 Z"/></g>
<g><path style="opacity:1" fill="#ebf0ff" d="M 394.5,118.5 C 396.665,118.116 398.332,118.783 399.5,120.5C 398.332,122.217 396.665,122.884 394.5,122.5C 394.5,121.167 394.5,119.833 394.5,118.5 Z"/></g>
<g><path style="opacity:1" fill="#f5f6ff" d="M 619.5,118.5 C 620.5,118.5 621.5,118.5 622.5,118.5C 622.334,123.844 622.501,129.177 623,134.5C 625.285,132.093 627.451,129.593 629.5,127C 630.944,126.219 632.277,126.386 633.5,127.5C 630.573,130.256 628.24,133.422 626.5,137C 629.153,140.322 631.82,143.656 634.5,147C 633.167,147.667 631.833,147.667 630.5,147C 627.628,144.463 625.128,141.63 623,138.5C 622.502,141.482 622.335,144.482 622.5,147.5C 621.5,147.5 620.5,147.5 619.5,147.5C 619.5,137.833 619.5,128.167 619.5,118.5 Z"/></g>
<g><path style="opacity:1" fill="#f2f5ff" d="M 637.5,118.5 C 638.833,118.5 640.167,118.5 641.5,118.5C 641.5,119.833 641.5,121.167 641.5,122.5C 640.167,122.5 638.833,122.5 637.5,122.5C 637.5,121.167 637.5,119.833 637.5,118.5 Z"/></g>
<g><path style="opacity:1" fill="#316176" d="M 33.5,66.5 C 31.6649,73.3232 30.9982,80.3232 31.5,87.5C 31.8333,89.5 32.1667,91.5 32.5,93.5C 40.3768,93.2141 48.2102,93.5475 56,94.5C 56.9454,94.9054 57.6121,95.572 58,96.5C 58.8236,99.7848 59.3236,103.118 59.5,106.5C 58.5905,112.486 58.4238,118.486 59,124.5C 66.4129,125.481 73.9129,125.814 81.5,125.5C 81.5,125.833 81.5,126.167 81.5,126.5C 74.1811,127.355 66.8478,127.521 59.5,127C 59,126.5 58.5,126 58,125.5C 57.5002,116.173 57.3335,106.839 57.5,97.5C 48.2968,96.0309 38.9635,94.8642 29.5,94C 28.8167,86.8343 28.1501,79.6676 27.5,72.5C 29.1667,70.1667 31.1667,68.1667 33.5,66.5 Z"/></g>
<g><path style="opacity:1" fill="#f0f3ff" d="M 177.5,120.5 C 192.337,120.137 197.503,127.137 193,141.5C 189.268,147.046 184.101,148.879 177.5,147C 169.057,141.105 167.39,133.605 172.5,124.5C 174.21,123.113 175.877,121.779 177.5,120.5 Z"/></g>
<g><path style="opacity:1" fill="#eef3ff" d="M 305.5,120.5 C 307.467,120.261 309.301,120.594 311,121.5C 313.735,129.871 316.568,138.204 319.5,146.5C 318.167,147.833 316.833,147.833 315.5,146.5C 314.833,144.833 314.167,143.167 313.5,141.5C 309.878,140.341 306.211,140.175 302.5,141C 301.331,143.007 300.665,145.173 300.5,147.5C 299.167,147.5 297.833,147.5 296.5,147.5C 298.905,138.285 301.905,129.285 305.5,120.5 Z"/></g>
<g><path style="opacity:1" fill="#f2f5ff" d="M 547.5,120.5 C 552.511,120.334 557.511,120.501 562.5,121C 565.349,123.559 566.183,126.726 565,130.5C 564.25,131.126 563.416,131.626 562.5,132C 567.48,134.851 568.813,139.018 566.5,144.5C 565.5,145.333 564.5,146.167 563.5,147C 558.177,147.499 552.844,147.666 547.5,147.5C 547.5,138.5 547.5,129.5 547.5,120.5 Z"/></g>
<g><path style="opacity:1" fill="#5c859b" d="M -0.5,-0.5 C -0.166667,-0.5 0.166667,-0.5 0.5,-0.5C 0.333345,38.8347 0.500012,78.1681 1,117.5C 3.35537,116.869 5.52204,116.869 7.5,117.5C 8.28847,120.899 9.28847,124.233 10.5,127.5C 13.0865,128.48 15.7531,128.813 18.5,128.5C 18.3379,130.527 18.5045,132.527 19,134.5C 20.6845,136.701 22.6845,137.367 25,136.5C 26.3076,138.641 27.8076,140.641 29.5,142.5C 30.7678,141.572 32.1011,141.405 33.5,142C 36.8393,144.951 40.506,147.451 44.5,149.5C 45.1667,149.167 45.8333,148.833 46.5,148.5C 50.337,149.38 53.6704,151.046 56.5,153.5C 37.5,153.5 18.5,153.5 -0.5,153.5C -0.5,102.167 -0.5,50.8333 -0.5,-0.5 Z"/></g>
<g><path style="opacity:1" fill="#779ca9" d="M 155.5,104.5 C 155.5,111.833 155.5,119.167 155.5,126.5C 152.058,126.032 149.391,127.198 147.5,130C 137.551,132.873 127.885,136.539 118.5,141C 107.944,143.483 97.2773,145.65 86.5,147.5C 86.5,148.833 86.5,150.167 86.5,151.5C 82.5,151.5 78.5,151.5 74.5,151.5C 74.6602,149.801 74.4935,148.134 74,146.5C 71.8083,145.601 69.6416,144.601 67.5,143.5C 65.8963,138.044 67.8963,134.711 73.5,133.5C 74.2975,133.043 74.6309,132.376 74.5,131.5C 77.3267,130.581 79.66,128.914 81.5,126.5C 81.5,126.167 81.5,125.833 81.5,125.5C 83.2303,124.974 84.5637,123.974 85.5,122.5C 86.5,122.167 87.1667,121.5 87.5,120.5C 88.8333,119.167 90.1667,117.833 91.5,116.5C 93.6353,118.369 96.3019,119.036 99.5,118.5C 97.9458,119.914 96.6125,121.581 95.5,123.5C 92.8333,124.167 90.1667,124.833 87.5,125.5C 86.3595,126.425 86.3595,127.259 87.5,128C 85.0997,129.844 85.4331,131.344 88.5,132.5C 90.1667,131.833 91.8333,131.167 93.5,130.5C 94.6721,130.919 95.6721,131.585 96.5,132.5C 99.9674,131.002 103.634,130.002 107.5,129.5C 109.697,127.482 112.364,126.315 115.5,126C 115.833,125 116.167,124 116.5,123C 121.003,121.22 125.67,120.387 130.5,120.5C 130.281,119.325 130.614,118.325 131.5,117.5C 135.44,115.553 139.107,113.219 142.5,110.5C 143.942,106.594 146.442,104.594 150,104.5C 151.81,101.982 153.643,101.982 155.5,104.5 Z"/></g>
<g><path style="opacity:1" fill="#f8f7ff" d="M 429.5,121.5 C 430.5,121.5 431.5,121.5 432.5,121.5C 432.5,123.167 432.5,124.833 432.5,126.5C 434.833,126.5 437.167,126.5 439.5,126.5C 439.5,127.5 439.5,128.5 439.5,129.5C 437.167,129.5 434.833,129.5 432.5,129.5C 432.334,134.179 432.501,138.845 433,143.5C 434.667,144.833 436.333,144.833 438,143.5C 439.98,146.554 438.98,147.887 435,147.5C 432.966,147.646 431.299,146.98 430,145.5C 429.501,140.177 429.334,134.844 429.5,129.5C 428.167,129.5 426.833,129.5 425.5,129.5C 425.5,128.5 425.5,127.5 425.5,126.5C 426.833,126.5 428.167,126.5 429.5,126.5C 429.5,124.833 429.5,123.167 429.5,121.5 Z"/></g>
<g><path style="opacity:1" fill="#edeeff" d="M 523.5,121.5 C 524.833,121.5 526.167,121.5 527.5,121.5C 527.5,123.167 527.5,124.833 527.5,126.5C 529.5,126.5 531.5,126.5 533.5,126.5C 533.5,127.5 533.5,128.5 533.5,129.5C 531.5,129.5 529.5,129.5 527.5,129.5C 527.334,134.179 527.501,138.845 528,143.5C 529.458,144.747 530.958,144.747 532.5,143.5C 533.287,144.242 533.953,145.075 534.5,146C 531.634,147.457 528.634,147.79 525.5,147C 524.874,146.25 524.374,145.416 524,144.5C 523.501,139.511 523.334,134.511 523.5,129.5C 522.5,129.5 521.5,129.5 520.5,129.5C 520.5,128.5 520.5,127.5 520.5,126.5C 521.5,126.5 522.5,126.5 523.5,126.5C 523.5,124.833 523.5,123.167 523.5,121.5 Z"/></g>
<g><path style="opacity:1" fill="#5673ff" d="M 178.5,123.5 C 189.001,123.12 192.834,128.12 190,138.5C 188.02,143.906 184.186,145.739 178.5,144C 171.939,137.177 171.939,130.343 178.5,123.5 Z"/></g>
<g><path style="opacity:1" fill="#5272ff" d="M 551.5,123.5 C 554.518,123.335 557.518,123.502 560.5,124C 563.172,126.679 562.838,129.012 559.5,131C 556.854,131.497 554.187,131.664 551.5,131.5C 551.5,128.833 551.5,126.167 551.5,123.5 Z"/></g>
<g><path style="opacity:1" fill="#1c4c64" d="M 31.5,87.5 C 32.3909,88.2613 33.0576,89.2613 33.5,90.5C 41.0864,91.9729 48.7531,92.8062 56.5,93C 57.7659,93.3095 58.9326,93.8095 60,94.5C 61.6177,98.6343 62.451,102.968 62.5,107.5C 62.0058,112.442 62.0058,117.275 62.5,122C 64.6585,122.912 66.8252,123.745 69,124.5C 74.2328,123.823 79.7328,123.157 85.5,122.5C 84.5637,123.974 83.2303,124.974 81.5,125.5C 73.9129,125.814 66.4129,125.481 59,124.5C 58.4238,118.486 58.5905,112.486 59.5,106.5C 59.3236,103.118 58.8236,99.7848 58,96.5C 57.6121,95.572 56.9454,94.9054 56,94.5C 48.2102,93.5475 40.3768,93.2141 32.5,93.5C 32.1667,91.5 31.8333,89.5 31.5,87.5 Z"/></g>
<g><path style="opacity:1" fill="#6074ff" d="M 307.5,123.5 C 309.041,127.946 310.707,132.446 312.5,137C 309.446,137.821 306.446,137.655 303.5,136.5C 304.993,132.188 306.327,127.855 307.5,123.5 Z"/></g>
<g><path style="opacity:1" fill="#f0f4ff" d="M 686.5,153.5 C 680.833,153.5 675.167,153.5 669.5,153.5C 667.688,149.932 668.688,147.432 672.5,146C 669.626,142.949 669.959,140.282 673.5,138C 671.643,136.818 670.643,135.151 670.5,133C 670.85,128.402 673.35,126.236 678,126.5C 681.472,128.552 683.639,127.552 684.5,123.5C 687.019,125.359 687.019,127.359 684.5,129.5C 686.55,136.967 683.55,140.467 675.5,140C 674.62,141.356 674.286,142.856 674.5,144.5C 678.637,144.146 682.637,144.646 686.5,146C 687.779,148.498 687.779,150.998 686.5,153.5 Z"/></g>
<g><path style="opacity:1" fill="#f1f5ff" d="M 200.5,126.5 C 201.5,126.5 202.5,126.5 203.5,126.5C 203.443,130.133 204.443,130.3 206.5,127C 209.916,126.107 213.083,126.607 216,128.5C 217.416,134.715 217.916,141.048 217.5,147.5C 216.167,147.5 214.833,147.5 213.5,147.5C 213.666,141.824 213.499,136.157 213,130.5C 210.084,128.987 207.418,129.32 205,131.5C 203.729,136.754 203.229,142.087 203.5,147.5C 202.5,147.5 201.5,147.5 200.5,147.5C 200.5,140.5 200.5,133.5 200.5,126.5 Z"/></g>
<g><path style="opacity:1" fill="#ecefff" d="M 234.5,126.5 C 235.833,126.5 237.167,126.5 238.5,126.5C 238.5,133.5 238.5,140.5 238.5,147.5C 237.167,147.5 235.833,147.5 234.5,147.5C 234.5,140.5 234.5,133.5 234.5,126.5 Z"/></g>
<g><path style="opacity:1" fill="#e9eeff" d="M 244.5,126.5 C 246.451,126.227 247.951,126.893 249,128.5C 253.269,125.617 257.269,125.95 261,129.5C 261.499,135.491 261.666,141.491 261.5,147.5C 260.167,147.5 258.833,147.5 257.5,147.5C 257.666,141.824 257.499,136.157 257,130.5C 253.751,128.883 251.084,129.549 249,132.5C 248.501,137.489 248.334,142.489 248.5,147.5C 247.167,147.5 245.833,147.5 244.5,147.5C 244.5,140.5 244.5,133.5 244.5,126.5 Z"/></g>
<g><path style="opacity:1" fill="#f2f5ff" d="M 271.5,126.5 C 280.506,124.847 284.839,128.514 284.5,137.5C 279.833,137.5 275.167,137.5 270.5,137.5C 272.098,145.169 276.098,146.503 282.5,141.5C 283.308,141.808 283.975,142.308 284.5,143C 281.217,147.275 276.884,148.609 271.5,147C 264.87,140.168 264.87,133.335 271.5,126.5 Z"/></g>
<g><path style="opacity:1" fill="#eef1ff" d="M 327.5,153.5 C 326.167,153.5 324.833,153.5 323.5,153.5C 323.5,144.5 323.5,135.5 323.5,126.5C 325.451,126.227 326.951,126.893 328,128.5C 334.208,124.899 338.874,126.233 342,132.5C 342.667,135.5 342.667,138.5 342,141.5C 338.751,147.741 334.084,149.074 328,145.5C 327.503,148.146 327.336,150.813 327.5,153.5 Z"/></g>
<g><path style="opacity:1" fill="#ecf1ff" d="M 351.5,153.5 C 350.167,153.5 348.833,153.5 347.5,153.5C 347.5,144.5 347.5,135.5 347.5,126.5C 349.451,126.227 350.951,126.893 352,128.5C 352.75,127.874 353.584,127.374 354.5,127C 359.625,125.431 363.459,126.931 366,131.5C 367.041,136.44 366.374,141.106 364,145.5C 359.933,148.099 355.933,148.099 352,145.5C 351.503,148.146 351.336,150.813 351.5,153.5 Z"/></g>
<g><path style="opacity:1" fill="#edf2ff" d="M 375.5,126.5 C 386.824,125.325 391.324,130.325 389,141.5C 386.232,147.172 381.732,149.006 375.5,147C 368.87,140.168 368.87,133.335 375.5,126.5 Z"/></g>
<g><path style="opacity:1" fill="#fcfcff" d="M 395.5,126.5 C 396.5,126.5 397.5,126.5 398.5,126.5C 398.5,133.5 398.5,140.5 398.5,147.5C 397.5,147.5 396.5,147.5 395.5,147.5C 395.5,140.5 395.5,133.5 395.5,126.5 Z"/></g>
<g><path style="opacity:1" fill="#f2f4ff" d="M 405.5,126.5 C 406.5,126.5 407.5,126.5 408.5,126.5C 408.443,130.133 409.443,130.3 411.5,127C 414.916,126.107 418.083,126.607 421,128.5C 422.37,134.742 422.87,141.075 422.5,147.5C 421.167,147.5 419.833,147.5 418.5,147.5C 418.666,142.156 418.499,136.823 418,131.5C 414.706,128.689 411.706,129.022 409,132.5C 408.501,137.489 408.334,142.489 408.5,147.5C 407.5,147.5 406.5,147.5 405.5,147.5C 405.5,140.5 405.5,133.5 405.5,126.5 Z"/></g>
<g><path style="opacity:1" fill="#edf2ff" d="M 443.5,126.5 C 445.451,126.227 446.951,126.893 448,128.5C 451.943,125.634 455.61,125.968 459,129.5C 463.045,125.511 467.045,125.511 471,129.5C 471.499,135.491 471.666,141.491 471.5,147.5C 470.5,147.5 469.5,147.5 468.5,147.5C 468.666,142.489 468.499,137.489 468,132.5C 465.525,128.595 462.858,128.595 460,132.5C 459.501,137.489 459.334,142.489 459.5,147.5C 458.167,147.5 456.833,147.5 455.5,147.5C 455.666,141.824 455.499,136.157 455,130.5C 452.408,129.018 450.075,129.352 448,131.5C 447.501,136.823 447.334,142.156 447.5,147.5C 446.167,147.5 444.833,147.5 443.5,147.5C 443.5,140.5 443.5,133.5 443.5,126.5 Z"/></g>
<g><path style="opacity:1" fill="#f2f5ff" d="M 481.5,126.5 C 490.506,124.847 494.839,128.514 494.5,137.5C 489.833,137.5 485.167,137.5 480.5,137.5C 482.098,145.169 486.098,146.503 492.5,141.5C 493.308,141.808 493.975,142.308 494.5,143C 491.217,147.275 486.884,148.609 481.5,147C 474.87,140.168 474.87,133.335 481.5,126.5 Z"/></g>
<g><path style="opacity:1" fill="#f1f5ff" d="M 499.5,126.5 C 500.5,126.5 501.5,126.5 502.5,126.5C 502.443,130.133 503.443,130.3 505.5,127C 508.916,126.107 512.083,126.607 515,128.5C 516.416,134.715 516.916,141.048 516.5,147.5C 515.167,147.5 513.833,147.5 512.5,147.5C 512.666,141.824 512.499,136.157 512,130.5C 509.084,128.987 506.418,129.32 504,131.5C 502.729,136.754 502.229,142.087 502.5,147.5C 501.5,147.5 500.5,147.5 499.5,147.5C 499.5,140.5 499.5,133.5 499.5,126.5 Z"/></g>
<g><path style="opacity:1" fill="#edf2ff" d="M 576.5,126.5 C 587.824,125.325 592.324,130.325 590,141.5C 587.232,147.172 582.732,149.006 576.5,147C 569.87,140.168 569.87,133.335 576.5,126.5 Z"/></g>
<g><path style="opacity:1" fill="#edf2ff" d="M 600.5,126.5 C 612.079,125.979 616.245,131.312 613,142.5C 610.103,147.155 605.937,148.655 600.5,147C 594.514,142.832 593.014,137.332 596,130.5C 597.397,128.93 598.897,127.596 600.5,126.5 Z"/></g>
<g><path style="opacity:1" fill="#ebf0ff" d="M 637.5,126.5 C 638.833,126.5 640.167,126.5 641.5,126.5C 641.5,133.5 641.5,140.5 641.5,147.5C 640.167,147.5 638.833,147.5 637.5,147.5C 637.5,140.5 637.5,133.5 637.5,126.5 Z"/></g>
<g><path style="opacity:1" fill="#edf4ff" d="M 647.5,126.5 C 649.451,126.227 650.951,126.893 652,128.5C 656.341,125.552 660.341,125.885 664,129.5C 664.499,135.491 664.666,141.491 664.5,147.5C 663.5,147.5 662.5,147.5 661.5,147.5C 661.666,142.489 661.499,137.489 661,132.5C 658.182,128.576 655.182,128.576 652,132.5C 651.501,137.489 651.334,142.489 651.5,147.5C 650.167,147.5 648.833,147.5 647.5,147.5C 647.5,140.5 647.5,133.5 647.5,126.5 Z"/></g>
<g><path style="opacity:1" fill="#5771ff" d="M 273.5,129.5 C 277.851,128.533 280.185,130.2 280.5,134.5C 277.102,134.82 273.768,134.487 270.5,133.5C 271.172,131.84 272.172,130.507 273.5,129.5 Z"/></g>
<g><path style="opacity:1" fill="#5472ff" d="M 330.5,129.5 C 338.121,129.946 340.621,133.946 338,141.5C 334.667,145.5 331.333,145.5 328,141.5C 326.773,136.938 327.607,132.938 330.5,129.5 Z"/></g>
<g><path style="opacity:1" fill="#5672ff" d="M 354.5,129.5 C 357.695,128.961 360.195,129.961 362,132.5C 362.667,135.5 362.667,138.5 362,141.5C 358.206,145.741 354.873,145.408 352,140.5C 350.812,136.259 351.645,132.592 354.5,129.5 Z"/></g>
<g><path style="opacity:1" fill="#5772ff" d="M 377.5,129.5 C 380.695,128.961 383.195,129.961 385,132.5C 385.667,135.5 385.667,138.5 385,141.5C 381.667,145.5 378.333,145.5 375,141.5C 374.333,138.5 374.333,135.5 375,132.5C 375.698,131.309 376.531,130.309 377.5,129.5 Z"/></g>
<g><path style="opacity:1" fill="#5771ff" d="M 483.5,129.5 C 487.851,128.533 490.185,130.2 490.5,134.5C 487.102,134.82 483.768,134.487 480.5,133.5C 481.172,131.84 482.172,130.507 483.5,129.5 Z"/></g>
<g><path style="opacity:1" fill="#5772ff" d="M 578.5,129.5 C 581.695,128.961 584.195,129.961 586,132.5C 586.667,135.5 586.667,138.5 586,141.5C 582.667,145.5 579.333,145.5 576,141.5C 575.333,138.5 575.333,135.5 576,132.5C 576.698,131.309 577.531,130.309 578.5,129.5 Z"/></g>
<g><path style="opacity:1" fill="#5872ff" d="M 601.5,129.5 C 607.359,128.523 610.359,131.023 610.5,137C 610.362,143.147 607.362,145.48 601.5,144C 597.547,139.169 597.547,134.335 601.5,129.5 Z"/></g>
<g><path style="opacity:1" fill="#5872ff" d="M 675.5,129.5 C 680.006,128.527 682.172,130.194 682,134.5C 675.645,138.201 673.478,136.534 675.5,129.5 Z"/></g>
<g><path style="opacity:1" fill="#5271ff" d="M 551.5,134.5 C 554.85,134.335 558.183,134.502 561.5,135C 564.167,138 564.167,141 561.5,144C 558.183,144.498 554.85,144.665 551.5,144.5C 551.5,141.167 551.5,137.833 551.5,134.5 Z"/></g>
<g><path style="opacity:1" fill="#5c75ff" d="M 673.5,147.5 C 676.518,147.335 679.518,147.502 682.5,148C 684.957,149.154 684.957,150.488 682.5,152C 679.5,152.667 676.5,152.667 673.5,152C 672.272,150.51 672.272,149.01 673.5,147.5 Z"/></g>
</svg>
