<?xml version="1.0" encoding="UTF-8"?>
<!DOCTYPE svg PUBLIC "-//W3C//DTD SVG 1.1//EN" "http://www.w3.org/Graphics/SVG/1.1/DTD/svg11.dtd">
<svg xmlns="http://www.w3.org/2000/svg" version="1.1" width="500px" height="500px" style="shape-rendering:geometricPrecision; text-rendering:geometricPrecision; image-rendering:optimizeQuality; fill-rule:evenodd; clip-rule:evenodd" xmlns:xlink="http://www.w3.org/1999/xlink">
<g><path style="opacity:1" fill="#fefeff" d="M -0.5,-0.5 C 166.167,-0.5 332.833,-0.5 499.5,-0.5C 499.5,166.167 499.5,332.833 499.5,499.5C 332.833,499.5 166.167,499.5 -0.5,499.5C -0.5,332.833 -0.5,166.167 -0.5,-0.5 Z"/></g>
<g><path style="opacity:1" fill="#5975ff" d="M 176.5,230.5 C 182.732,229.939 188.732,230.772 194.5,233C 195.357,233.689 196.023,234.522 196.5,235.5C 195.396,237.389 194.063,239.055 192.5,240.5C 188.267,237.638 183.6,236.805 178.5,238C 175.538,241.488 176.205,244.155 180.5,246C 186.088,246.849 191.255,248.682 196,251.5C 200.426,259.879 198.592,266.379 190.5,271C 181.255,274.194 173.588,272.027 167.5,264.5C 168.833,262.833 170.167,261.167 171.5,259.5C 176.207,264.231 181.874,265.731 188.5,264C 191.034,261.253 191.034,258.587 188.5,256C 183.903,254.414 179.236,253.081 174.5,252C 169.538,248.457 167.704,243.624 169,237.5C 170.742,234.254 173.242,231.921 176.5,230.5 Z"/></g>
<g><path style="opacity:1" fill="#5774ff" d="M 95.5,230.5 C 104.5,230.5 113.5,230.5 122.5,230.5C 122.5,232.833 122.5,235.167 122.5,237.5C 116.167,237.5 109.833,237.5 103.5,237.5C 103.5,240.5 103.5,243.5 103.5,246.5C 109.167,246.5 114.833,246.5 120.5,246.5C 120.5,248.833 120.5,251.167 120.5,253.5C 114.833,253.5 109.167,253.5 103.5,253.5C 103.5,257.167 103.5,260.833 103.5,264.5C 110.167,264.5 116.833,264.5 123.5,264.5C 123.5,266.833 123.5,269.167 123.5,271.5C 114.167,271.5 104.833,271.5 95.5,271.5C 95.5,257.833 95.5,244.167 95.5,230.5 Z"/></g>
<g><path style="opacity:1" fill="#5975ff" d="M 139.5,230.5 C 143.437,230.207 147.27,230.54 151,231.5C 155.808,244.757 160.308,258.09 164.5,271.5C 161.813,271.664 159.146,271.497 156.5,271C 155.407,268.557 154.407,266.057 153.5,263.5C 148.198,262.337 142.864,262.171 137.5,263C 136.407,265.443 135.407,267.943 134.5,270.5C 131.914,271.48 129.247,271.813 126.5,271.5C 131.031,257.906 135.365,244.239 139.5,230.5 Z"/></g>
<g><path style="opacity:1" fill="#5875ff" d="M 200.5,230.5 C 203.187,230.336 205.854,230.503 208.5,231C 211.541,236.25 214.708,241.417 218,246.5C 221.292,241.417 224.459,236.25 227.5,231C 230.227,230.182 232.894,230.348 235.5,231.5C 231,239.167 226.5,246.833 222,254.5C 221.501,260.157 221.334,265.824 221.5,271.5C 218.833,271.5 216.167,271.5 213.5,271.5C 213.666,265.491 213.499,259.491 213,253.5C 208.3,246.099 204.134,238.432 200.5,230.5 Z"/></g>
<g><path style="opacity:1" fill="#5875ff" d="M 267.5,230.5 C 271.437,230.207 275.27,230.54 279,231.5C 282.136,241.241 285.469,250.908 289,260.5C 292.531,250.908 295.864,241.241 299,231.5C 302.394,230.544 305.894,230.211 309.5,230.5C 309.5,244.167 309.5,257.833 309.5,271.5C 307.167,271.5 304.833,271.5 302.5,271.5C 302.666,262.494 302.5,253.494 302,244.5C 298.34,253.313 295.173,262.313 292.5,271.5C 290.076,271.808 287.743,271.474 285.5,270.5C 282.235,261.872 279.068,253.205 276,244.5C 275.5,253.494 275.334,262.494 275.5,271.5C 272.833,271.5 270.167,271.5 267.5,271.5C 267.5,257.833 267.5,244.167 267.5,230.5 Z"/></g>
<g><path style="opacity:1" fill="#5774ff" d="M 320.5,230.5 C 329.5,230.5 338.5,230.5 347.5,230.5C 347.5,232.833 347.5,235.167 347.5,237.5C 341.167,237.5 334.833,237.5 328.5,237.5C 328.5,240.5 328.5,243.5 328.5,246.5C 334.167,246.5 339.833,246.5 345.5,246.5C 345.5,248.833 345.5,251.167 345.5,253.5C 339.833,253.5 334.167,253.5 328.5,253.5C 328.5,257.167 328.5,260.833 328.5,264.5C 335.167,264.5 341.833,264.5 348.5,264.5C 348.5,266.833 348.5,269.167 348.5,271.5C 339.167,271.5 329.833,271.5 320.5,271.5C 320.5,257.833 320.5,244.167 320.5,230.5 Z"/></g>
<g><path style="opacity:1" fill="#5875ff" d="M 355.5,230.5 C 361.842,230.334 368.175,230.5 374.5,231C 385.53,232.86 390.863,239.36 390.5,250.5C 391.346,261.798 386.346,268.631 375.5,271C 368.842,271.5 362.175,271.666 355.5,271.5C 355.5,257.833 355.5,244.167 355.5,230.5 Z"/></g>
<g><path style="opacity:1" fill="#f9faff" d="M 363.5,237.5 C 380.189,236.032 386.022,243.365 381,259.5C 379.833,260.667 378.667,261.833 377.5,263C 372.934,264.309 368.267,264.809 363.5,264.5C 363.5,255.5 363.5,246.5 363.5,237.5 Z"/></g>
<g><path style="opacity:1" fill="#f0f1ff" d="M 144.5,239.5 C 147.852,244.21 149.852,249.543 150.5,255.5C 146.774,255.823 143.107,255.489 139.5,254.5C 141.372,249.55 143.039,244.55 144.5,239.5 Z"/></g>
<g><path style="opacity:1" fill="#5271ff" d="M 236.5,274.5 C 245.167,274.5 253.833,274.5 262.5,274.5C 262.5,276.5 262.5,278.5 262.5,280.5C 253.833,280.5 245.167,280.5 236.5,280.5C 236.5,278.5 236.5,276.5 236.5,274.5 Z"/></g>
</svg>
